Coordinates
version=1
nRows=14
nColumns=33
inDegrees=yes

Units are S.I. units (second, meters, Newtons, ...)
Angles are in degrees.

endheader
time	ground_thorax_rot_x	ground_thorax_rot_y	ground_thorax_rot_z	ground_thorax_tx	ground_thorax_ty	ground_thorax_tz	clav_prot_r	clav_elev_r	scapula_abduction_r	scapula_elevation_r	scapula_upward_rot_r	scapula_winging_r	shoulder_elv_r	plane_of_elev_r	axial_rot_r	elbow_flexion_r	pro_sup_r	wrist_flex_r	wrist_dev_r	clav_prot_l	clav_elev_l	scapula_abduction_l	scapula_elevation_l	scapula_upward_rot_l	scapula_winging_l	shoulder_elv_l	plane_of_elev_l	axial_rot_l	elbow_flexion_l	pro_sup_l	wrist_flex_l	wrist_dev_l	
3.7300	29.117118	29.816449	40.762533	-102.020540	781.215422	7.515532	13.985986	36.390938	34.206986	45.000000	-45.000000	-4759.478534	-1550.634056	145.351005	180.000000	2166.791299	49.757197	22.574805	14.036676	6.659026	-45.000000	-36.533943	45.000000	-44.998803	1893.295852	-1898.290393	140.051085	146.020419	728.567458	18.414320	9.601520	-19.198964	
3.7400	29.334852	29.659114	40.353881	-104.136891	782.023658	7.482987	14.002029	36.404255	34.301609	45.000000	-45.000000	-4759.596894	-1550.466585	145.302398	180.000000	2166.978363	49.558939	22.627287	14.001024	6.665071	-45.000000	-36.574531	45.000000	-44.997857	1893.348474	-1898.059424	139.902272	146.479267	728.690715	18.091142	9.566522	-19.231374	
3.7500	29.550481	29.502103	39.936487	-106.323820	782.874552	7.449624	14.017483	36.417439	34.393134	45.000000	-45.000000	-4759.715372	-1550.296245	145.253053	180.000000	2167.161198	49.369833	22.675386	13.962303	6.669577	-45.000000	-36.623125	45.000000	-44.996158	1893.403802	-1897.820185	139.756384	146.927504	728.819230	17.753133	9.531324	-19.264882	
3.7600	29.769108	29.343290	39.510584	-108.583093	783.765301	7.420626	14.032299	36.428789	34.488015	45.000000	-45.000000	-4759.835850	-1550.120575	145.205781	180.000000	2167.343861	49.193550	22.717024	13.914784	6.674227	-45.000000	-36.674119	45.000000	-44.993125	1893.462064	-1897.580098	139.613303	147.369274	728.942956	17.404297	9.495205	-19.298168	
3.7700	29.989056	29.180442	39.076306	-110.915761	784.694580	7.398496	14.048786	36.439820	34.578444	45.000000	-45.000000	-4759.954743	-1549.936951	145.155372	180.000000	2167.528820	49.033457	22.754133	13.861171	6.680201	-45.000000	-36.728390	45.000000	-44.987665	1893.523829	-1897.337219	139.474732	147.807876	729.065541	17.046839	9.459127	-19.332402	
3.7800	30.212661	29.011170	38.630313	-113.322437	785.661650	7.383784	14.065734	36.450404	34.666540	45.000000	-45.000000	-4760.075365	-1549.745804	145.099591	180.000000	2167.718091	48.890247	22.788648	13.800101	6.687429	-45.000000	-36.783883	45.000000	-44.977958	1893.590620	-1897.091765	139.336732	148.246907	729.184947	16.684357	9.422303	-19.367758	
3.7900	30.436841	28.832529	38.173357	-115.804509	786.664591	7.377094	14.085312	36.459816	34.746063	45.000000	-45.000000	-4760.195106	-1549.548321	145.036412	180.000000	2167.911510	48.758874	22.821880	13.731738	6.697142	-45.000000	-36.842244	45.000000	-44.960369	1893.663711	-1896.840111	139.201062	148.684591	729.307376	16.319355	9.386413	-19.405423	
3.8000	30.665960	28.642340	37.702495	-118.364167	787.700141	7.379047	14.103934	36.467116	34.822882	45.000000	-45.000000	-4760.319084	-1549.343682	144.965662	180.000000	2168.107098	48.627004	22.856812	13.656291	6.709363	-45.000000	-36.901613	45.000000	-44.929422	1893.745776	-1896.586517	139.062865	149.119501	729.425773	15.955068	9.350306	-19.443985	
3.8100	30.896868	28.436072	37.219349	-121.004183	788.763788	7.390233	14.123959	36.470562	34.891837	45.000000	-45.000000	-4760.444063	-1549.134683	144.886519	180.000000	2168.302915	48.473713	22.894183	13.574194	6.725041	-45.000000	-36.963532	45.000000	-44.872423	1893.840374	-1896.331971	138.927171	149.543057	729.544265	15.593091	9.316255	-19.483850	
3.8200	31.133222	28.211018	36.720391	-123.727428	789.850349	7.410599	14.139833	36.467818	34.961370	45.000000	-45.000000	-4760.574432	-1548.922211	144.802375	180.000000	2168.495028	48.272558	22.936212	13.487094	6.743047	-45.000000	-37.026770	45.000000	-44.774687	1893.949365	-1896.086371	138.792430	149.956458	729.652531	15.234746	9.283469	-19.523045	
3.8300	31.376322	27.955616	36.195354	-126.534286	790.954956	7.438933	14.152774	36.463814	35.034982	45.000000	-45.000000	-4760.701055	-1548.709975	144.720613	180.000000	2168.685807	48.001050	22.976933	13.387642	6.754548	-45.000000	-37.102155	45.000000	-44.587426	1894.070438	-1895.859676	138.679854	150.349147	729.752559	14.884658	9.256832	-19.563376	
3.8400	31.630108	27.670767	35.640678	-129.420578	792.074393	7.471869	14.157250	36.455248	35.117113	45.000000	-45.000000	-4760.828163	-1548.497382	144.638854	180.000000	2168.867223	47.648468	23.018129	13.282621	6.760077	-45.000000	-37.189843	45.000000	-44.314663	1894.205489	-1895.656506	138.581335	150.716876	729.840022	14.544383	9.232373	-19.604091	
3.8500	31.889453	27.356039	35.057203	-132.371861	793.210498	7.502475	14.154832	36.445039	35.204334	45.000000	-45.000000	-4760.950064	-1548.287164	144.557370	180.000000	2169.044995	47.236000	23.056726	13.172223	6.757554	-45.000000	-37.292063	45.000000	-43.957099	1894.352038	-1895.473510	138.502825	151.054548	729.921948	14.215744	9.210674	-19.647151	
3.8600	32.149360	27.026153	34.459537	-135.366040	794.372236	7.517833	14.139062	36.426196	35.296060	45.000000	-45.000000	-4761.076605	-1548.079856	144.470382	180.000000	2169.222317	46.830358	23.099321	13.067650	6.756649	-45.000000	-37.394591	45.000000	-43.575512	1894.509834	-1895.302856	138.420328	151.378115	729.991728	13.893601	9.184064	-19.689835	
